<?xml version="1.0" encoding="UTF-8" standalone="no"?>
<!-- License: MIT. Made by framework7io: https://github.com/framework7io/framework7-icons -->

<svg
   fill="#000000"
   width="619.42004"
   height="763.72858"
   viewBox="0 0 43.359403 53.461"
   version="1.1"
   id="svg182"
   sodipodi:docname="Sparkles SVG.svg"
   inkscape:export-filename="Sparkles SVG.png"
   inkscape:export-xdpi="96"
   inkscape:export-ydpi="96"
   xmlns:inkscape="http://www.inkscape.org/namespaces/inkscape"
   xmlns:sodipodi="http://sodipodi.sourceforge.net/DTD/sodipodi-0.dtd"
   xmlns="http://www.w3.org/2000/svg"
   xmlns:svg="http://www.w3.org/2000/svg">
  <defs
     id="defs186" />
  <sodipodi:namedview
     id="namedview184"
     pagecolor="#ffffff"
     bordercolor="#000000"
     borderopacity="0.25"
     inkscape:showpageshadow="2"
     inkscape:pageopacity="0.0"
     inkscape:pagecheckerboard="0"
     inkscape:deskcolor="#d1d1d1"
     showgrid="false" />
  <path
     d="m 20.3672,11.3907 c 0.2812,0 0.4219,-0.1641 0.4922,-0.4219 C 21.5859,7.0547 21.5391,6.961 25.6172,6.1875 25.8984,6.1407 26.0625,5.9766 26.0625,5.6953 26.0625,5.4141 25.8984,5.25 25.6172,5.2031 21.5625,4.3829 21.6797,4.2891 20.8594,0.42189998 20.7891,0.16409998 20.6484,-1.7166137e-8 20.3672,-1.7166137e-8 20.0859,-1.7166137e-8 19.9453,0.16409998 19.875,0.42189998 19.0547,4.2891 19.1953,4.3829 15.1172,5.2031 14.8594,5.25 14.6719,5.4141 14.6719,5.6953 c 0,0.2813 0.1875,0.4454 0.4453,0.4922 4.0781,0.8204 4.0312,0.8672 4.7578,4.7813 0.0703,0.2578 0.2109,0.4219 0.4922,0.4219 z M 9.0234999,27.5157 c 0.4453,0 0.75,-0.2813 0.7968,-0.7031 0.8438001,-6.2579 1.0547001,-6.2579 7.5235001,-7.5 0.4219,-0.0704 0.7265,-0.3516 0.7265,-0.7969 0,-0.4219 -0.3046,-0.7266 -0.7265,-0.7969 -6.4688,-0.8906 -6.7032,-1.1016 -7.5235001,-7.4766 -0.0468,-0.4218 -0.3515,-0.7265 -0.7968,-0.7265 -0.4219,0 -0.7266,0.3047 -0.7735,0.75 -0.7734,6.2812 -1.1016,6.2578 -7.5234,7.4531 -0.4219,0.0938 -0.72660000223388,0.375 -0.72660000223388,0.7969 0,0.4687 0.30470000223388,0.7265 0.82030000223388,0.7969 6.375,1.0312 6.6563,1.1953 7.4297,7.4531 0.0469,0.4687 0.3516,0.75 0.7735,0.75 z M 24.9141,53.461 c 0.6094,0 1.0547,-0.4453 1.1718,-1.0781 1.6641,-12.8438 3.4688,-14.7891 16.1719,-16.1954 0.6563,-0.0703 1.1016,-0.5625 1.1016,-1.1718 0,-0.6094 -0.4453,-1.0782 -1.1016,-1.1719 C 29.5547,32.4375 27.75,30.4922 26.0859,17.6485 c -0.1171,-0.6328 -0.5624,-1.0547 -1.1718,-1.0547 -0.6094,0 -1.0547,0.4219 -1.1484,1.0547 -1.6641,12.8437 -3.4922,14.789 -16.1720001,16.1953 -0.6796,0.0937 -1.1249,0.5625 -1.1249,1.1719 0,0.6093 0.4453,1.1015 1.1249,1.1718 C 20.25,37.8516 22.0078,39.5626 23.7657,52.3829 c 0.0937,0.6328 0.539,1.0781 1.1484,1.0781 z"
     id="path180"
     style="fill:#585a5a;fill-opacity:1" />
</svg>
